<?xml version="1.0" encoding="UTF-8"?>
<svg width="43px" height="43px" viewBox="0 0 43 43" version="1.1" xmlns="http://www.w3.org/2000/svg" xmlns:xlink="http://www.w3.org/1999/xlink">
    <title>Group 39</title>
    <g id="Page-1" stroke="none" stroke-width="1" fill="none" fill-rule="evenodd">
        <g id="D_Gibson---Home_R6" transform="translate(-906.000000, -5287.000000)">
            <g id="Group-39" transform="translate(906.000000, 5287.000000)">
                <rect id="Rectangle" fill="#908055" x="0" y="0" width="43" height="43"></rect>
                <path d="M17.2060606,11 C13.9843996,11 11.3727273,13.6116723 11.3727273,16.8333333 L11.3727273,26.1666667 C11.3727273,29.3883277 13.9843996,32 17.2060606,32 L26.5393939,32 C29.761055,32 32.3727273,29.3883277 32.3727273,26.1666667 L32.3727273,16.8333333 C32.3727273,13.6116723 29.761055,11 26.5393939,11 L17.2060606,11 Z M28.8727273,13.3333333 C29.5143939,13.3333333 30.0393939,13.8583333 30.0393939,14.5 C30.0393939,15.1416667 29.5143939,15.6666667 28.8727273,15.6666667 C28.2310606,15.6666667 27.7060606,15.1416667 27.7060606,14.5 C27.7060606,13.8583333 28.2310606,13.3333333 28.8727273,13.3333333 Z M21.8727273,15.6666667 C25.0943883,15.6666667 27.7060606,18.278339 27.7060606,21.5 C27.7060606,24.721661 25.0943883,27.3333333 21.8727273,27.3333333 C18.6510662,27.3333333 16.0393939,24.721661 16.0393939,21.5 C16.0393939,18.278339 18.6510662,15.6666667 21.8727273,15.6666667 L21.8727273,15.6666667 Z M21.872727,17.9999998 C20.6218809,18.0004168 19.4662735,18.6681205 18.8412113,19.7515937 C18.216149,20.8350668 18.2165938,22.169704 18.8423779,23.2527604 C19.4681621,24.3358167 20.6242142,25.0027502 21.8750606,25.0023335 C23.8087015,25.001689 25.3757049,23.4336409 25.3750607,21.4999998 C25.3744162,19.5663591 23.8063682,17.9993557 21.872727,17.9999998 Z" id="surface1" fill="#FFFFFF" fill-rule="nonzero"></path>
            </g>
        </g>
    </g>
</svg>