<?xml version="1.0" encoding="UTF-8"?>
<svg width="43px" height="43px" viewBox="0 0 43 43" version="1.1" xmlns="http://www.w3.org/2000/svg" xmlns:xlink="http://www.w3.org/1999/xlink">
    <title>Group 40</title>
    <g id="Page-1" stroke="none" stroke-width="1" fill="none" fill-rule="evenodd">
        <g id="D_Gibson---Home_R6" transform="translate(-963.000000, -5287.000000)">
            <g id="Group-40" transform="translate(963.000000, 5287.000000)">
                <rect id="Rectangle-Copy" fill="#908055" x="0" y="0" width="43" height="43"></rect>
                <path d="M33.3727273,16.1309231 C32.5174148,16.4923077 31.6060398,16.7318462 30.6558523,16.8481538 C31.6333523,16.286 32.3794148,15.4026154 32.7301648,14.3378462 C31.8187898,14.8612308 30.8125398,15.2309231 29.7401648,15.4372308 C28.8747898,14.5496923 27.6414148,14 26.2959148,14 C23.6854148,14 21.5837898,16.0409231 21.5837898,18.5429231 C21.5837898,18.9029231 21.6154148,19.2490769 21.6930398,19.5786154 C17.7729773,19.3944615 14.3042898,17.5847692 11.9741023,14.828 C11.5672898,15.5078462 11.3286648,16.286 11.3286648,17.1236923 C11.3286648,18.6966154 12.1696023,20.0909231 13.4231023,20.8981538 C12.6655398,20.8843077 11.9223523,20.6724615 11.2927273,20.3387692 C11.2927273,20.3526154 11.2927273,20.3706154 11.2927273,20.3886154 C11.2927273,22.5956923 12.9271648,24.4289231 15.0704773,24.8512308 C14.6866648,24.9523077 14.2683523,25.0007692 13.8342273,25.0007692 C13.5323523,25.0007692 13.2276023,24.9841538 12.9415398,24.9232308 C13.5524773,26.7218462 15.2861023,28.0441538 17.3474773,28.0870769 C15.7432273,29.2958462 13.7062898,30.0241538 11.5011648,30.0241538 C11.1144773,30.0241538 10.7436023,30.0075385 10.3727273,29.9618462 C12.4614148,31.2592308 14.9367898,32 17.6062273,32 C26.2829773,32 31.0267273,25.0769231 31.0267273,19.076 C31.0267273,18.8752308 31.0195398,18.6813846 31.0094773,18.4889231 C31.9452898,17.8492308 32.7316023,17.0503077 33.3727273,16.1309231 Z" id="Path" fill="#FFFFFF" fill-rule="nonzero"></path>
            </g>
        </g>
    </g>
</svg>