<?xml version="1.0" encoding="UTF-8"?>
<svg width="43px" height="43px" viewBox="0 0 43 43" version="1.1" xmlns="http://www.w3.org/2000/svg" xmlns:xlink="http://www.w3.org/1999/xlink">
    <title>Group 41</title>
    <g id="Page-1" stroke="none" stroke-width="1" fill="none" fill-rule="evenodd">
        <g id="D_Gibson---Home_R6" transform="translate(-1020.000000, -5287.000000)">
            <g id="Group-41" transform="translate(1020.000000, 5287.000000)">
                <rect id="Rectangle-Copy-2" fill="#908055" x="0" y="0" width="43" height="43"></rect>
                <path d="M32.3952273,16.5418182 C31.7713523,15.4189091 31.0942898,15.2123636 29.7157273,15.1338182 C28.3386023,15.0392727 24.8756648,15 21.8756023,15 C18.8697898,15 15.4054148,15.0392727 14.0297273,15.1323636 C12.6540398,15.2123636 11.9755398,15.4174545 11.3459148,16.5418182 C10.7033523,17.6632727 10.3727273,19.5949091 10.3727273,22.9956364 C10.3727273,22.9985455 10.3727273,23 10.3727273,23 C10.3727273,23.0029091 10.3727273,23.0043636 10.3727273,23.0043636 L10.3727273,23.0072727 C10.3727273,26.3934545 10.7033523,28.3396364 11.3459148,29.4494545 C11.9755398,30.5723636 12.6526023,30.776 14.0282898,30.8705455 C15.4054148,30.952 18.8697898,31 21.8756023,31 C24.8756648,31 28.3386023,30.952 29.7171648,30.872 C31.0957273,30.7774545 31.7727898,30.5738182 32.3966648,29.4509091 C33.0449773,28.3410909 33.3727273,26.3949091 33.3727273,23.0087273 C33.3727273,23.0087273 33.3727273,23.0043636 33.3727273,23.0014545 C33.3727273,23.0014545 33.3727273,22.9985455 33.3727273,22.9970909 C33.3727273,19.5949091 33.0449773,17.6632727 32.3952273,16.5418182 Z M18.9977273,27.3636364 L18.9977273,18.6363636 L26.1852273,23 L18.9977273,27.3636364 Z" id="Shape" fill="#FFFFFF" fill-rule="nonzero"></path>
            </g>
        </g>
    </g>
</svg>