<?xml version="1.0" encoding="UTF-8"?>
<svg width="43px" height="43px" viewBox="0 0 43 43" version="1.1" xmlns="http://www.w3.org/2000/svg" xmlns:xlink="http://www.w3.org/1999/xlink">
    <title>Group 44</title>
    <g id="Page-1" stroke="none" stroke-width="1" fill="none" fill-rule="evenodd">
        <g id="D_Gibson---Home_R6" transform="translate(-1133.000000, -5287.000000)">
            <g id="Group-44" transform="translate(1133.000000, 5287.000000)">
                <g id="Group-43">
                    <rect id="Rectangle-Copy-5" fill="#908055" x="0" y="0" width="43" height="43"></rect>
                    <path d="M31.2082258,18.9487097 L30.5835161,18.9487097 L30.5835161,25.8153226 C30.5835161,26.8844516 29.9610323,27.8511935 28.7130968,27.8511935 L16.4867419,27.8511935 L16.4867419,28.1776452 C16.4867419,29.122871 17.5618065,30.077 18.6658065,30.077 L28.0134516,30.077 L31.5895806,32.1796452 L31.0709677,30.077 L31.2082258,30.077 C32.3114839,30.077 32.8093226,29.1250968 32.8093226,28.1776452 L32.8093226,20.5787419 C32.8093226,19.6335161 32.3114839,18.9487097 31.2082258,18.9487097 Z" id="Path" fill="#FFFFFF" fill-rule="nonzero"></path>
                    <path d="M26.8879355,14.1780645 L12.6872903,14.1780645 C11.437871,14.1780645 10,15.288 10,16.357871 L10,24.9643226 C10,25.9496129 11.2182581,26.661129 12.3868065,26.7709355 L11.6263226,29.6578065 L16.4993548,26.7909677 L26.8879355,26.7909677 C28.1373548,26.7909677 29.2903226,26.0334516 29.2903226,24.9643226 L29.2903226,18.0012581 L29.2903226,16.357871 C29.2903226,15.288 28.1366129,14.1780645 26.8879355,14.1780645 Z" id="Shape" fill="#FFFFFF" fill-rule="nonzero"></path>
                </g>
                <rect id="Rectangle" fill="#908055" x="14" y="18" width="12" height="1" rx="0.5"></rect>
                <rect id="Rectangle-Copy-6" fill="#908055" x="14" y="20" width="12" height="1" rx="0.5"></rect>
                <rect id="Rectangle-Copy-7" fill="#908055" x="14" y="22" width="8" height="1" rx="0.5"></rect>
            </g>
        </g>
    </g>
</svg>